<svg width="225" height="60" viewBox="0 0 225 60" fill="none" xmlns="http://www.w3.org/2000/svg">
<path d="M56.3916 14.0979H44.6434C44.6434 10.3589 43.158 6.77305 40.5142 4.12918C37.8703 1.48531 34.2845 0 30.5455 0C26.8065 0 23.2206 1.48531 20.5767 4.12918C17.9329 6.77305 16.4476 10.3589 16.4476 14.0979H4.6993C3.45297 14.0979 2.25768 14.593 1.37639 15.4743C0.495103 16.3556 0 17.5509 0 18.7972V54.042C0 55.2883 0.495103 56.4836 1.37639 57.3649C2.25768 58.2462 3.45297 58.7413 4.6993 58.7413H56.3916C57.6379 58.7413 58.8332 58.2462 59.7145 57.3649C60.5958 56.4836 61.0909 55.2883 61.0909 54.042V18.7972C61.0909 17.5509 60.5958 16.3556 59.7145 15.4743C58.8332 14.593 57.6379 14.0979 56.3916 14.0979ZM30.5455 4.6993C33.0381 4.6993 35.4287 5.68951 37.1913 7.45209C38.9538 9.21467 39.9441 11.6052 39.9441 14.0979H21.1469C21.1469 11.6052 22.1371 9.21467 23.8996 7.45209C25.6622 5.68951 28.0528 4.6993 30.5455 4.6993ZM56.3916 54.042H4.6993V18.7972H16.4476V23.4965C16.4476 24.1197 16.6951 24.7173 17.1357 25.158C17.5764 25.5986 18.174 25.8462 18.7972 25.8462C19.4204 25.8462 20.018 25.5986 20.4587 25.158C20.8993 24.7173 21.1469 24.1197 21.1469 23.4965V18.7972H39.9441V23.4965C39.9441 24.1197 40.1916 24.7173 40.6323 25.158C41.0729 25.5986 41.6705 25.8462 42.2937 25.8462C42.9169 25.8462 43.5145 25.5986 43.9552 25.158C44.3958 24.7173 44.6434 24.1197 44.6434 23.4965V18.7972H56.3916V54.042Z" fill="black"/>
<path d="M87.6171 21.2887H92.5571L99.831 42.0794L107.105 21.2887H112.045L101.815 49.6061H97.8472L87.6171 21.2887ZM84.9527 21.2887H89.8732L90.7678 41.5543V49.6061H84.9527V21.2887ZM109.789 21.2887H114.729V49.6061H108.894V41.5543L109.789 21.2887ZM125.737 47.2333L131.319 28.5625H137.328L128.868 52.7762C128.686 53.3078 128.44 53.8783 128.129 54.4877C127.831 55.0971 127.422 55.6741 126.904 56.2187C126.398 56.7762 125.756 57.23 124.978 57.5801C124.213 57.9302 123.273 58.1052 122.158 58.1052C121.627 58.1052 121.192 58.0728 120.855 58.008C120.518 57.9431 120.116 57.8524 119.649 57.7357V53.632C119.792 53.632 119.941 53.632 120.097 53.632C120.252 53.6449 120.401 53.6514 120.544 53.6514C121.283 53.6514 121.886 53.5671 122.353 53.3986C122.819 53.23 123.195 52.9707 123.481 52.6206C123.766 52.2835 123.993 51.8427 124.161 51.2981L125.737 47.2333ZM123.403 28.5625L127.973 43.8103L128.771 49.7422L124.959 50.1506L117.393 28.5625H123.403ZM166.249 40.2123H172.064C171.947 42.1183 171.422 43.8103 170.488 45.2885C169.568 46.7666 168.278 47.9205 166.618 48.7503C164.971 49.5801 162.988 49.9951 160.667 49.9951C158.852 49.9951 157.224 49.6839 155.785 49.0615C154.346 48.4262 153.114 47.5186 152.09 46.3387C151.079 45.1588 150.307 43.7325 149.775 42.06C149.244 40.3874 148.978 38.5138 148.978 36.4393V34.4749C148.978 32.4004 149.25 30.5268 149.795 28.8542C150.352 27.1687 151.143 25.7359 152.168 24.5561C153.205 23.3762 154.443 22.4685 155.882 21.8332C157.322 21.1979 158.929 20.8802 160.706 20.8802C163.065 20.8802 165.056 21.3081 166.676 22.1639C168.31 23.0196 169.574 24.1995 170.469 25.7035C171.377 27.2076 171.921 28.9191 172.103 30.838H166.268C166.203 29.697 165.976 28.7311 165.587 27.9401C165.198 27.1363 164.608 26.5333 163.817 26.1314C163.04 25.7165 162.002 25.509 160.706 25.509C159.733 25.509 158.884 25.6906 158.158 26.0536C157.432 26.4167 156.822 26.9677 156.33 27.7068C155.837 28.4458 155.467 29.3793 155.221 30.5074C154.988 31.6224 154.871 32.932 154.871 34.436V36.4393C154.871 37.9044 154.981 39.1945 155.202 40.3096C155.422 41.4117 155.759 42.3452 156.213 43.1102C156.68 43.8622 157.276 44.4327 158.002 44.8217C158.741 45.1977 159.629 45.3857 160.667 45.3857C161.886 45.3857 162.89 45.1912 163.681 44.8022C164.472 44.4133 165.075 43.8363 165.49 43.0713C165.918 42.3063 166.171 41.3533 166.249 40.2123ZM186.903 44.8606V35.4863C186.903 34.812 186.793 34.2351 186.573 33.7553C186.352 33.2626 186.009 32.8801 185.542 32.6078C185.088 32.3356 184.498 32.1994 183.772 32.1994C183.15 32.1994 182.611 32.3096 182.158 32.5301C181.704 32.7375 181.354 33.0422 181.107 33.4441C180.861 33.8331 180.738 34.2934 180.738 34.825H175.137C175.137 33.9304 175.344 33.0811 175.759 32.2772C176.174 31.4733 176.777 30.7667 177.568 30.1573C178.359 29.5349 179.299 29.0487 180.388 28.6986C181.49 28.3486 182.722 28.1735 184.083 28.1735C185.717 28.1735 187.169 28.4458 188.44 28.9904C189.71 29.5349 190.709 30.3518 191.435 31.4409C192.174 32.5301 192.543 33.8915 192.543 35.5252V44.5299C192.543 45.6839 192.615 46.6304 192.757 47.3695C192.9 48.0956 193.107 48.7309 193.38 49.2754V49.6061H187.72C187.448 49.0356 187.24 48.3225 187.098 47.4667C186.968 46.598 186.903 45.7293 186.903 44.8606ZM187.642 36.7893L187.681 39.9595H184.55C183.811 39.9595 183.169 40.0438 182.624 40.2123C182.08 40.3809 181.633 40.6207 181.282 40.9319C180.932 41.2301 180.673 41.5802 180.505 41.9822C180.349 42.3841 180.271 42.8249 180.271 43.3047C180.271 43.7844 180.381 44.2188 180.602 44.6077C180.822 44.9838 181.14 45.282 181.555 45.5024C181.97 45.7098 182.456 45.8136 183.013 45.8136C183.856 45.8136 184.589 45.645 185.211 45.3079C185.833 44.9708 186.313 44.5559 186.65 44.0632C187 43.5705 187.182 43.1037 187.195 42.6629L188.673 45.0356C188.466 45.5672 188.18 46.1183 187.817 46.6888C187.467 47.2593 187.02 47.7973 186.475 48.303C185.931 48.7957 185.276 49.2041 184.511 49.5283C183.746 49.8395 182.838 49.9951 181.788 49.9951C180.453 49.9951 179.24 49.7293 178.151 49.1977C177.075 48.6531 176.219 47.9076 175.584 46.961C174.962 46.0016 174.65 44.9124 174.65 43.6937C174.65 42.5916 174.858 41.6126 175.273 40.7569C175.688 39.9011 176.297 39.1815 177.101 38.5981C177.918 38.0016 178.936 37.5543 180.154 37.2561C181.373 36.9449 182.786 36.7893 184.394 36.7893H187.642ZM202.462 33.1524V49.6061H196.861V28.5625H202.132L202.462 33.1524ZM208.802 28.4264L208.705 33.6192C208.433 33.5803 208.102 33.5479 207.713 33.5219C207.337 33.483 206.994 33.4636 206.683 33.4636C205.892 33.4636 205.204 33.5673 204.621 33.7748C204.05 33.9693 203.571 34.261 203.182 34.65C202.806 35.0389 202.521 35.5122 202.326 36.0697C202.145 36.6273 202.041 37.2626 202.015 37.9757L200.887 37.6256C200.887 36.2642 201.023 35.013 201.295 33.872C201.568 32.7181 201.963 31.7132 202.482 30.8575C203.013 30.0017 203.662 29.3405 204.427 28.8737C205.191 28.4069 206.067 28.1735 207.052 28.1735C207.363 28.1735 207.681 28.1995 208.005 28.2513C208.329 28.2902 208.595 28.3486 208.802 28.4264ZM222.728 28.5625V32.5301H210.475V28.5625H222.728ZM213.509 23.3697H219.11V43.2658C219.11 43.8752 219.188 44.3419 219.344 44.6661C219.512 44.9902 219.759 45.2171 220.083 45.3468C220.407 45.4635 220.815 45.5218 221.308 45.5218C221.658 45.5218 221.969 45.5089 222.242 45.4829C222.527 45.444 222.767 45.4051 222.961 45.3662L222.981 49.4894C222.501 49.645 221.982 49.7682 221.425 49.8589C220.867 49.9497 220.251 49.9951 219.577 49.9951C218.345 49.9951 217.269 49.7941 216.349 49.3921C215.441 48.9772 214.741 48.316 214.248 47.4084C213.755 46.5008 213.509 45.3079 213.509 43.8298V23.3697Z" fill="black"/>
</svg>
